<mxfile host="app.diagrams.net" agent="Mozilla/5.0 (Windows NT 10.0; Win64; x64) AppleWebKit/537.36 (KHTML, like Gecko) Chrome/134.0.0.0 Safari/537.36 Edg/134.0.0.0/8mqQhSuL-09" version="26.1.3">
  <diagram name="Work-Life Balance Initiatives Conceptual Model" id="J_pW7Pdx2sPQsrdDxJ0A">
    <mxGraphModel dx="1179" dy="625" grid="1" gridSize="10" guides="1" tooltips="1" connect="1" arrows="1" fold="1" page="1" pageScale="1" pageWidth="1169" pageHeight="827" math="0" shadow="0">
      <root>
        <mxCell id="0" />
        <mxCell id="1" parent="0" />
        <mxCell id="mKm7KI8KSEGcFYa6v3Hf-1" value="" style="rounded=0;whiteSpace=wrap;html=1;fillColor=#FFFFFF;" vertex="1" parent="1">
          <mxGeometry width="800" height="600" as="geometry" />
        </mxCell>
        <mxCell id="mKm7KI8KSEGcFYa6v3Hf-2" value="Work-Life Balance Initiatives Conceptual Model" style="text;html=1;strokeColor=none;fillColor=none;align=center;verticalAlign=middle;whiteSpace=wrap;rounded=0;fontSize=18;fontStyle=1" vertex="1" parent="1">
          <mxGeometry x="200" y="20" width="400" height="30" as="geometry" />
        </mxCell>
        <mxCell id="mKm7KI8KSEGcFYa6v3Hf-3" value="Flexible Working Hours" style="rounded=1;whiteSpace=wrap;html=1;fillColor=#4682B4;strokeColor=#000000;strokeWidth=2;fontColor=#FFFFFF;" vertex="1" parent="1">
          <mxGeometry x="100" y="140" width="150" height="60" as="geometry" />
        </mxCell>
        <mxCell id="mKm7KI8KSEGcFYa6v3Hf-4" value="Remote Work Options" style="rounded=1;whiteSpace=wrap;html=1;fillColor=#4682B4;strokeColor=#000000;strokeWidth=2;fontColor=#FFFFFF;" vertex="1" parent="1">
          <mxGeometry x="100" y="240" width="150" height="60" as="geometry" />
        </mxCell>
        <mxCell id="mKm7KI8KSEGcFYa6v3Hf-5" value="Wellness Programs" style="rounded=1;whiteSpace=wrap;html=1;fillColor=#4682B4;strokeColor=#000000;strokeWidth=2;fontColor=#FFFFFF;" vertex="1" parent="1">
          <mxGeometry x="100" y="340" width="150" height="60" as="geometry" />
        </mxCell>
        <mxCell id="mKm7KI8KSEGcFYa6v3Hf-6" value="Burnout" style="rounded=1;whiteSpace=wrap;html=1;fillColor=#FF9999;strokeColor=#000000;strokeWidth=2;" vertex="1" parent="1">
          <mxGeometry x="350" y="170" width="150" height="60" as="geometry" />
        </mxCell>
        <mxCell id="mKm7KI8KSEGcFYa6v3Hf-7" value="Job Satisfaction" style="rounded=1;whiteSpace=wrap;html=1;fillColor=#90EE90;strokeColor=#000000;strokeWidth=2;" vertex="1" parent="1">
          <mxGeometry x="350" y="310" width="150" height="60" as="geometry" />
        </mxCell>
        <mxCell id="mKm7KI8KSEGcFYa6v3Hf-8" value="Operational Efficiency&#xa;(coding errors, delivery speed)" style="rounded=1;whiteSpace=wrap;html=1;fillColor=#E6E6FA;strokeColor=#000000;strokeWidth=2;fontSize=14;spacingTop=0;spacing=5;verticalAlign=middle;" vertex="1" parent="1">
          <mxGeometry x="600" y="170" width="150" height="60" as="geometry" />
        </mxCell>
        <mxCell id="mKm7KI8KSEGcFYa6v3Hf-9" value="Retention&#xa;(intent to stay)" style="rounded=1;whiteSpace=wrap;html=1;fillColor=#E6E6FA;strokeColor=#000000;strokeWidth=2;fontSize=14;spacingTop=0;spacing=5;verticalAlign=middle;" vertex="1" parent="1">
          <mxGeometry x="600" y="310" width="150" height="60" as="geometry" />
        </mxCell>
        <mxCell id="mKm7KI8KSEGcFYa6v3Hf-10" value="Gender Moderation" style="rounded=1;whiteSpace=wrap;html=1;fillColor=none;strokeColor=#000000;strokeWidth=1;dashed=1;" vertex="1" parent="1">
          <mxGeometry x="320" y="80" width="210" height="40" as="geometry" />
        </mxCell>
        <mxCell id="mKm7KI8KSEGcFYa6v3Hf-11" value="Inputs" style="text;html=1;strokeColor=none;fillColor=none;align=center;verticalAlign=middle;whiteSpace=wrap;rounded=0;fontSize=16;fontStyle=1" vertex="1" parent="1">
          <mxGeometry x="125" y="100" width="100" height="30" as="geometry" />
        </mxCell>
        <mxCell id="mKm7KI8KSEGcFYa6v3Hf-12" value="Mediators" style="text;html=1;strokeColor=none;fillColor=none;align=center;verticalAlign=middle;whiteSpace=wrap;rounded=0;fontSize=16;fontStyle=1" vertex="1" parent="1">
          <mxGeometry x="375" y="450" width="100" height="30" as="geometry" />
        </mxCell>
        <mxCell id="mKm7KI8KSEGcFYa6v3Hf-13" value="Outcomes" style="text;html=1;strokeColor=none;fillColor=none;align=center;verticalAlign=middle;whiteSpace=wrap;rounded=0;fontSize=16;fontStyle=1" vertex="1" parent="1">
          <mxGeometry x="625" y="450" width="100" height="30" as="geometry" />
        </mxCell>
        <mxCell id="mKm7KI8KSEGcFYa6v3Hf-14" value="" style="rounded=1;whiteSpace=wrap;html=1;fillColor=#F8F8F8;strokeColor=#000000;strokeWidth=1;" vertex="1" parent="1">
          <mxGeometry x="120" y="500" width="600" height="70" as="geometry" />
        </mxCell>
        <mxCell id="mKm7KI8KSEGcFYa6v3Hf-15" value="Legend" style="text;html=1;strokeColor=none;fillColor=none;align=center;verticalAlign=middle;whiteSpace=wrap;rounded=0;fontSize=14;fontStyle=1" vertex="1" parent="1">
          <mxGeometry x="350" y="510" width="100" height="20" as="geometry" />
        </mxCell>
        <mxCell id="mKm7KI8KSEGcFYa6v3Hf-16" value="" style="whiteSpace=wrap;html=1;aspect=fixed;fillColor=#4682B4;" vertex="1" parent="1">
          <mxGeometry x="150" y="535" width="15" height="15" as="geometry" />
        </mxCell>
        <mxCell id="mKm7KI8KSEGcFYa6v3Hf-17" value="WLB Initiatives" style="text;html=1;strokeColor=none;fillColor=none;align=left;verticalAlign=middle;whiteSpace=wrap;rounded=0;fontSize=12;" vertex="1" parent="1">
          <mxGeometry x="170" y="535" width="100" height="15" as="geometry" />
        </mxCell>
        <mxCell id="mKm7KI8KSEGcFYa6v3Hf-18" value="" style="whiteSpace=wrap;html=1;aspect=fixed;fillColor=#FF9999;" vertex="1" parent="1">
          <mxGeometry x="270" y="535" width="15" height="15" as="geometry" />
        </mxCell>
        <mxCell id="mKm7KI8KSEGcFYa6v3Hf-19" value="Negative Employee Outcome" style="text;html=1;strokeColor=none;fillColor=none;align=left;verticalAlign=middle;whiteSpace=wrap;rounded=0;fontSize=12;" vertex="1" parent="1">
          <mxGeometry x="290" y="535" width="160" height="15" as="geometry" />
        </mxCell>
        <mxCell id="mKm7KI8KSEGcFYa6v3Hf-20" value="" style="whiteSpace=wrap;html=1;aspect=fixed;fillColor=#90EE90;" vertex="1" parent="1">
          <mxGeometry x="470" y="535" width="15" height="15" as="geometry" />
        </mxCell>
        <mxCell id="mKm7KI8KSEGcFYa6v3Hf-21" value="Positive Employee Outcome" style="text;html=1;strokeColor=none;fillColor=none;align=left;verticalAlign=middle;whiteSpace=wrap;rounded=0;fontSize=12;" vertex="1" parent="1">
          <mxGeometry x="490" y="535" width="150" height="15" as="geometry" />
        </mxCell>
        <mxCell id="mKm7KI8KSEGcFYa6v3Hf-22" value="" style="whiteSpace=wrap;html=1;aspect=fixed;fillColor=#E6E6FA;" vertex="1" parent="1">
          <mxGeometry x="650" y="535" width="15" height="15" as="geometry" />
        </mxCell>
        <mxCell id="mKm7KI8KSEGcFYa6v3Hf-23" value="Organizational Metrics" style="text;html=1;strokeColor=none;fillColor=none;align=left;verticalAlign=middle;whiteSpace=wrap;rounded=0;fontSize=12;" vertex="1" parent="1">
          <mxGeometry x="670" y="535" width="130" height="15" as="geometry" />
        </mxCell>
        <mxCell id="mKm7KI8KSEGcFYa6v3Hf-24" value="" style="endArrow=none;html=1;rounded=0;strokeWidth=1.5;strokeColor=#000000;" edge="1" parent="1">
          <mxGeometry width="50" height="50" relative="1" as="geometry">
            <mxPoint x="150" y="570" as="sourcePoint" />
            <mxPoint x="170" y="570" as="targetPoint" />
          </mxGeometry>
        </mxCell>
        <mxCell id="mKm7KI8KSEGcFYa6v3Hf-25" value="Direct Effect" style="text;html=1;strokeColor=none;fillColor=none;align=left;verticalAlign=middle;whiteSpace=wrap;rounded=0;fontSize=12;" vertex="1" parent="1">
          <mxGeometry x="175" y="562" width="90" height="15" as="geometry" />
        </mxCell>
        <mxCell id="mKm7KI8KSEGcFYa6v3Hf-26" value="" style="endArrow=none;html=1;rounded=0;strokeWidth=1.5;strokeColor=#FF0000;dashed=1;" edge="1" parent="1">
          <mxGeometry width="50" height="50" relative="1" as="geometry">
            <mxPoint x="270" y="570" as="sourcePoint" />
            <mxPoint x="290" y="570" as="targetPoint" />
          </mxGeometry>
        </mxCell>
        <mxCell id="mKm7KI8KSEGcFYa6v3Hf-27" value="Moderation Effect" style="text;html=1;strokeColor=none;fillColor=none;align=left;verticalAlign=middle;whiteSpace=wrap;rounded=0;fontSize=12;" vertex="1" parent="1">
          <mxGeometry x="295" y="562" width="110" height="15" as="geometry" />
        </mxCell>
        <mxCell id="mKm7KI8KSEGcFYa6v3Hf-28" style="edgeStyle=orthogonalEdgeStyle;rounded=0;orthogonalLoop=1;jettySize=auto;html=1;exitX=1;exitY=0.25;exitDx=0;exitDy=0;entryX=0;entryY=0.25;entryDx=0;entryDy=0;strokeWidth=1.5;" edge="1" parent="1" source="mKm7KI8KSEGcFYa6v3Hf-3" target="mKm7KI8KSEGcFYa6v3Hf-6">
          <mxGeometry relative="1" as="geometry" />
        </mxCell>
        <mxCell id="mKm7KI8KSEGcFYa6v3Hf-29" value="H1a" style="text;html=1;strokeColor=none;fillColor=none;align=center;verticalAlign=middle;whiteSpace=wrap;rounded=0;fontSize=12;" vertex="1" parent="1">
          <mxGeometry x="290" y="150" width="40" height="20" as="geometry" />
        </mxCell>
        <mxCell id="mKm7KI8KSEGcFYa6v3Hf-30" style="edgeStyle=orthogonalEdgeStyle;rounded=0;orthogonalLoop=1;jettySize=auto;html=1;exitX=1;exitY=0.75;exitDx=0;exitDy=0;entryX=0;entryY=0.25;entryDx=0;entryDy=0;strokeWidth=1.5;" edge="1" parent="1" source="mKm7KI8KSEGcFYa6v3Hf-3" target="mKm7KI8KSEGcFYa6v3Hf-7">
          <mxGeometry relative="1" as="geometry">
            <Array as="points">
              <mxPoint x="300" y="185" />
              <mxPoint x="300" y="325" />
            </Array>
          </mxGeometry>
        </mxCell>
        <mxCell id="mKm7KI8KSEGcFYa6v3Hf-31" value="H1b" style="text;html=1;strokeColor=none;fillColor=none;align=center;verticalAlign=middle;whiteSpace=wrap;rounded=0;fontSize=12;" vertex="1" parent="1">
          <mxGeometry x="280" y="230" width="40" height="20" as="geometry" />
        </mxCell>
        <mxCell id="mKm7KI8KSEGcFYa6v3Hf-32" style="edgeStyle=orthogonalEdgeStyle;rounded=0;orthogonalLoop=1;jettySize=auto;html=1;exitX=1;exitY=0.25;exitDx=0;exitDy=0;entryX=0;entryY=0.75;entryDx=0;entryDy=0;strokeWidth=1.5;" edge="1" parent="1" source="mKm7KI8KSEGcFYa6v3Hf-4" target="mKm7KI8KSEGcFYa6v3Hf-6">
          <mxGeometry relative="1" as="geometry">
            <Array as="points">
              <mxPoint x="300" y="255" />
              <mxPoint x="300" y="215" />
            </Array>
          </mxGeometry>
        </mxCell>
        <mxCell id="mKm7KI8KSEGcFYa6v3Hf-33" value="H2a" style="text;html=1;strokeColor=none;fillColor=none;align=center;verticalAlign=middle;whiteSpace=wrap;rounded=0;fontSize=12;" vertex="1" parent="1">
          <mxGeometry x="290" y="215" width="40" height="20" as="geometry" />
        </mxCell>
        <mxCell id="mKm7KI8KSEGcFYa6v3Hf-34" style="edgeStyle=orthogonalEdgeStyle;rounded=0;orthogonalLoop=1;jettySize=auto;html=1;exitX=1;exitY=0.75;exitDx=0;exitDy=0;entryX=0;entryY=0.5;entryDx=0;entryDy=0;strokeWidth=1.5;" edge="1" parent="1" source="mKm7KI8KSEGcFYa6v3Hf-4" target="mKm7KI8KSEGcFYa6v3Hf-7">
          <mxGeometry relative="1" as="geometry" />
        </mxCell>
        <mxCell id="mKm7KI8KSEGcFYa6v3Hf-35" value="H2b" style="text;html=1;strokeColor=none;fillColor=none;align=center;verticalAlign=middle;whiteSpace=wrap;rounded=0;fontSize=12;" vertex="1" parent="1">
          <mxGeometry x="290" y="290" width="40" height="20" as="geometry" />
        </mxCell>
        <mxCell id="mKm7KI8KSEGcFYa6v3Hf-36" style="edgeStyle=orthogonalEdgeStyle;rounded=0;orthogonalLoop=1;jettySize=auto;html=1;exitX=1;exitY=0.25;exitDx=0;exitDy=0;entryX=0.25;entryY=1;entryDx=0;entryDy=0;strokeWidth=1.5;" edge="1" parent="1" source="mKm7KI8KSEGcFYa6v3Hf-5" target="mKm7KI8KSEGcFYa6v3Hf-6">
          <mxGeometry relative="1" as="geometry">
            <Array as="points">
              <mxPoint x="280" y="355" />
              <mxPoint x="280" y="270" />
              <mxPoint x="388" y="270" />
            </Array>
          </mxGeometry>
        </mxCell>
        <mxCell id="mKm7KI8KSEGcFYa6v3Hf-37" value="H3a" style="text;html=1;strokeColor=none;fillColor=none;align=center;verticalAlign=middle;whiteSpace=wrap;rounded=0;fontSize=12;" vertex="1" parent="1">
          <mxGeometry x="280" y="270" width="40" height="20" as="geometry" />
        </mxCell>
        <mxCell id="mKm7KI8KSEGcFYa6v3Hf-38" style="edgeStyle=orthogonalEdgeStyle;rounded=0;orthogonalLoop=1;jettySize=auto;html=1;exitX=1;exitY=0.75;exitDx=0;exitDy=0;entryX=0;entryY=0.75;entryDx=0;entryDy=0;strokeWidth=1.5;" edge="1" parent="1" source="mKm7KI8KSEGcFYa6v3Hf-5" target="mKm7KI8KSEGcFYa6v3Hf-7">
          <mxGeometry relative="1" as="geometry" />
        </mxCell>
        <mxCell id="mKm7KI8KSEGcFYa6v3Hf-39" value="H3b" style="text;html=1;strokeColor=none;fillColor=none;align=center;verticalAlign=middle;whiteSpace=wrap;rounded=0;fontSize=12;" vertex="1" parent="1">
          <mxGeometry x="290" y="365" width="40" height="20" as="geometry" />
        </mxCell>
        <mxCell id="mKm7KI8KSEGcFYa6v3Hf-40" style="edgeStyle=orthogonalEdgeStyle;rounded=0;orthogonalLoop=1;jettySize=auto;html=1;exitX=1;exitY=0.5;exitDx=0;exitDy=0;entryX=0;entryY=0.5;entryDx=0;entryDy=0;strokeWidth=1.5;" edge="1" parent="1" source="mKm7KI8KSEGcFYa6v3Hf-6" target="mKm7KI8KSEGcFYa6v3Hf-8">
          <mxGeometry relative="1" as="geometry" />
        </mxCell>
        <mxCell id="mKm7KI8KSEGcFYa6v3Hf-41" value="H5a" style="text;html=1;strokeColor=none;fillColor=none;align=center;verticalAlign=middle;whiteSpace=wrap;rounded=0;fontSize=12;" vertex="1" parent="1">
          <mxGeometry x="550" y="180" width="40" height="20" as="geometry" />
        </mxCell>
        <mxCell id="mKm7KI8KSEGcFYa6v3Hf-42" style="edgeStyle=orthogonalEdgeStyle;rounded=0;orthogonalLoop=1;jettySize=auto;html=1;exitX=1;exitY=0.75;exitDx=0;exitDy=0;entryX=0;entryY=0.5;entryDx=0;entryDy=0;strokeWidth=1.5;" edge="1" parent="1" source="mKm7KI8KSEGcFYa6v3Hf-6" target="mKm7KI8KSEGcFYa6v3Hf-9">
          <mxGeometry relative="1" as="geometry">
            <Array as="points">
              <mxPoint x="550" y="215" />
              <mxPoint x="550" y="340" />
            </Array>
          </mxGeometry>
        </mxCell>
        <mxCell id="mKm7KI8KSEGcFYa6v3Hf-43" value="H5b" style="text;html=1;strokeColor=none;fillColor=none;align=center;verticalAlign=middle;whiteSpace=wrap;rounded=0;fontSize=12;" vertex="1" parent="1">
          <mxGeometry x="545" y="240" width="40" height="20" as="geometry" />
        </mxCell>
        <mxCell id="mKm7KI8KSEGcFYa6v3Hf-44" style="edgeStyle=orthogonalEdgeStyle;rounded=0;orthogonalLoop=1;jettySize=auto;html=1;exitX=1;exitY=0.25;exitDx=0;exitDy=0;entryX=0;entryY=0.75;entryDx=0;entryDy=0;strokeWidth=1.5;" edge="1" parent="1" source="mKm7KI8KSEGcFYa6v3Hf-7" target="mKm7KI8KSEGcFYa6v3Hf-8">
          <mxGeometry relative="1" as="geometry">
            <Array as="points">
              <mxPoint x="550" y="325" />
              <mxPoint x="550" y="215" />
            </Array>
          </mxGeometry>
        </mxCell>
        <mxCell id="mKm7KI8KSEGcFYa6v3Hf-45" value="H5c" style="text;html=1;strokeColor=none;fillColor=none;align=center;verticalAlign=middle;whiteSpace=wrap;rounded=0;fontSize=12;" vertex="1" parent="1">
          <mxGeometry x="545" y="260" width="40" height="20" as="geometry" />
        </mxCell>
        <mxCell id="mKm7KI8KSEGcFYa6v3Hf-46" style="edgeStyle=orthogonalEdgeStyle;rounded=0;orthogonalLoop=1;jettySize=auto;html=1;exitX=1;exitY=0.75;exitDx=0;exitDy=0;entryX=0;entryY=0.75;entryDx=0;entryDy=0;strokeWidth=1.5;" edge="1" parent="1" source="mKm7KI8KSEGcFYa6v3Hf-7" target="mKm7KI8KSEGcFYa6v3Hf-9">
          <mxGeometry relative="1" as="geometry" />
        </mxCell>
        <mxCell id="mKm7KI8KSEGcFYa6v3Hf-47" value="H5d" style="text;html=1;strokeColor=none;fillColor=none;align=center;verticalAlign=middle;whiteSpace=wrap;rounded=0;fontSize=12;" vertex="1" parent="1">
          <mxGeometry x="550" y="360" width="40" height="20" as="geometry" />
        </mxCell>
        <mxCell id="mKm7KI8KSEGcFYa6v3Hf-48" style="edgeStyle=orthogonalEdgeStyle;rounded=0;orthogonalLoop=1;jettySize=auto;html=1;exitX=0.25;exitY=1;exitDx=0;exitDy=0;entryX=0.5;entryY=0;entryDx=0;entryDy=0;strokeWidth=1.5;strokeColor=#FF0000;dashed=1;" edge="1" parent="1" source="mKm7KI8KSEGcFYa6v3Hf-10" target="mKm7KI8KSEGcFYa6v3Hf-3">
          <mxGeometry relative="1" as="geometry">
            <Array as="points">
              <mxPoint x="373" y="130" />
              <mxPoint x="175" y="130" />
            </Array>
          </mxGeometry>
        </mxCell>
        <mxCell id="mKm7KI8KSEGcFYa6v3Hf-49" value="H4a" style="text;html=1;strokeColor=#FF0000;fillColor=none;align=center;verticalAlign=middle;whiteSpace=wrap;rounded=0;fontSize=12;fontColor=#FF0000;" vertex="1" parent="1">
          <mxGeometry x="330" y="135" width="40" height="20" as="geometry" />
        </mxCell>
        <mxCell id="mKm7KI8KSEGcFYa6v3Hf-50" style="edgeStyle=orthogonalEdgeStyle;rounded=0;orthogonalLoop=1;jettySize=auto;html=1;exitX=0.75;exitY=1;exitDx=0;exitDy=0;entryX=0.5;entryY=0;entryDx=0;entryDy=0;strokeWidth=1.5;strokeColor=#FF0000;dashed=1;" edge="1" parent="1" source="mKm7KI8KSEGcFYa6v3Hf-10" target="mKm7KI8KSEGcFYa6v3Hf-5">
          <mxGeometry relative="1" as="geometry">
            <Array as="points">
              <mxPoint x="478" y="130" />
              <mxPoint x="295" y="130" />
              <mxPoint x="295" y="320" />
              <mxPoint x="175" y="320" />
            </Array>
          </mxGeometry>
        </mxCell>
        <mxCell id="mKm7KI8KSEGcFYa6v3Hf-51" value="H4b" style="text;html=1;strokeColor=#FF0000;fillColor=none;align=center;verticalAlign=middle;whiteSpace=wrap;rounded=0;fontSize=12;fontColor=#FF0000;" vertex="1" parent="1">
          <mxGeometry x="380" y="140" width="40" height="20" as="geometry" />
        </mxCell>
        <mxCell id="mKm7KI8KSEGcFYa6v3Hf-52" style="edgeStyle=orthogonalEdgeStyle;rounded=0;orthogonalLoop=1;jettySize=auto;html=1;exitX=1;exitY=0.5;exitDx=0;exitDy=0;strokeWidth=1.5;strokeColor=#FF0000;dashed=1;" edge="1" parent="1" source="mKm7KI8KSEGcFYa6v3Hf-10">
          <mxGeometry relative="1" as="geometry">
            <mxPoint x="580" y="150" as="targetPoint" />
            <Array as="points">
              <mxPoint x="580" y="100" />
            </Array>
          </mxGeometry>
        </mxCell>
        <mxCell id="mKm7KI8KSEGcFYa6v3Hf-53" value="H5" style="text;html=1;strokeColor=#FF0000;fillColor=none;align=center;verticalAlign=middle;whiteSpace=wrap;rounded=0;fontSize=12;fontColor=#FF0000;" vertex="1" parent="1">
          <mxGeometry x="565" y="115" width="40" height="20" as="geometry" />
        </mxCell>
      </root>
    </mxGraphModel>
  </diagram>
</mxfile>
